<svg width="47" height="42" viewBox="0 0 47 42" fill="none" xmlns="http://www.w3.org/2000/svg">
<path d="M45.6944 18.375H43.2872C42.5691 16.7344 41.5246 15.2824 40.2353 14.0684L41.7776 7.875H39.1664C36.7673 7.875 34.6457 8.98242 33.2095 10.6887C32.5894 10.5984 31.9774 10.5 31.3327 10.5H20.8879C14.572 10.5 9.30877 15.0117 8.09292 21H4.56778C3.3601 21 2.40537 19.8926 2.65017 18.6375C2.82969 17.7023 3.70282 17.0625 4.64938 17.0625H4.73098C5.00027 17.0625 5.22059 16.841 5.22059 16.5703V14.9297C5.22059 14.659 5.00027 14.4375 4.73098 14.4375C2.40537 14.4375 0.332722 16.1109 0.0389606 18.4242C-0.320081 21.2297 1.85049 23.625 4.56778 23.625H7.8318C7.8318 27.907 9.90445 31.6723 13.0542 34.0676V40.6875C13.0542 41.4094 13.6417 42 14.3598 42H19.5823C20.3003 42 20.8879 41.4094 20.8879 40.6875V36.75H31.3327V40.6875C31.3327 41.4094 31.9202 42 32.6383 42H37.8608C38.5788 42 39.1664 41.4094 39.1664 40.6875V34.0676C40.1292 33.3375 40.986 32.4762 41.7204 31.5H45.6944C46.4125 31.5 47 30.9094 47 30.1875V19.6875C47 18.9656 46.4125 18.375 45.6944 18.375ZM35.2495 23.625C34.5315 23.625 33.9439 23.0344 33.9439 22.3125C33.9439 21.5906 34.5315 21 35.2495 21C35.9676 21 36.5551 21.5906 36.5551 22.3125C36.5551 23.0344 35.9676 23.625 35.2495 23.625ZM20.8879 7.875H31.3327C31.7734 7.875 32.2058 7.90781 32.6302 7.94063C32.6302 7.91602 32.6383 7.89961 32.6383 7.875C32.6383 3.52734 29.1295 0 24.8047 0C20.4799 0 16.971 3.52734 16.971 7.875C16.971 8.04727 17.0118 8.21133 17.02 8.38359C18.2603 8.06367 19.5496 7.875 20.8879 7.875Z" fill="#00B37E"/>
</svg>
