<svg width="122" height="42" viewBox="0 0 122 42" fill="none" xmlns="http://www.w3.org/2000/svg">
<path d="M45.6944 18.375H43.2872C42.5691 16.7344 41.5246 15.2824 40.2353 14.0684L41.7776 7.875H39.1664C36.7673 7.875 34.6457 8.98242 33.2095 10.6887C32.5894 10.5984 31.9774 10.5 31.3327 10.5H20.8879C14.572 10.5 9.30877 15.0117 8.09292 21H4.56778C3.3601 21 2.40537 19.8926 2.65017 18.6375C2.82969 17.7023 3.70282 17.0625 4.64938 17.0625H4.73098C5.00027 17.0625 5.22059 16.841 5.22059 16.5703V14.9297C5.22059 14.659 5.00027 14.4375 4.73098 14.4375C2.40537 14.4375 0.332722 16.1109 0.0389606 18.4242C-0.320081 21.2297 1.85049 23.625 4.56778 23.625H7.8318C7.8318 27.907 9.90445 31.6723 13.0542 34.0676V40.6875C13.0542 41.4094 13.6417 42 14.3598 42H19.5823C20.3003 42 20.8879 41.4094 20.8879 40.6875V36.75H31.3327V40.6875C31.3327 41.4094 31.9202 42 32.6383 42H37.8608C38.5788 42 39.1664 41.4094 39.1664 40.6875V34.0676C40.1292 33.3375 40.986 32.4762 41.7204 31.5H45.6944C46.4125 31.5 47 30.9094 47 30.1875V19.6875C47 18.9656 46.4125 18.375 45.6944 18.375ZM35.2495 23.625C34.5315 23.625 33.9439 23.0344 33.9439 22.3125C33.9439 21.5906 34.5315 21 35.2495 21C35.9676 21 36.5551 21.5906 36.5551 22.3125C36.5551 23.0344 35.9676 23.625 35.2495 23.625ZM20.8879 7.875H31.3327C31.7734 7.875 32.2058 7.90781 32.6302 7.94063C32.6302 7.91602 32.6383 7.89961 32.6383 7.875C32.6383 3.52734 29.1295 0 24.8047 0C20.4799 0 16.971 3.52734 16.971 7.875C16.971 8.04727 17.0118 8.21133 17.02 8.38359C18.2603 8.06367 19.5496 7.875 20.8879 7.875Z" fill="#00B37E"/>
<path d="M71.7358 21.5171H67.0635L67.0385 18.9436H70.9613C71.6525 18.9436 72.2189 18.8561 72.6603 18.6812C73.1017 18.498 73.4307 18.2356 73.6472 17.8942C73.8721 17.5444 73.9845 17.1196 73.9845 16.6199C73.9845 16.0535 73.8763 15.5955 73.6597 15.2457C73.4515 14.8959 73.1225 14.6419 72.6728 14.4836C72.2314 14.3254 71.6609 14.2462 70.9613 14.2462H68.3627V29.5H64.6149V11.3104H70.9613C72.019 11.3104 72.9643 11.4104 73.7971 11.6103C74.6383 11.8101 75.3504 12.1141 75.9334 12.5222C76.5164 12.9303 76.962 13.4467 77.2701 14.0713C77.5783 14.6877 77.7324 15.4206 77.7324 16.2701C77.7324 17.0197 77.5616 17.7109 77.2202 18.3439C76.887 18.9769 76.3582 19.4932 75.6336 19.893C74.9173 20.2928 73.9804 20.5135 72.8227 20.5551L71.7358 21.5171ZM71.5734 29.5H66.0391L67.5007 26.5767H71.5734C72.2314 26.5767 72.7686 26.4726 73.185 26.2644C73.6014 26.0478 73.9096 25.7563 74.1095 25.3899C74.3093 25.0234 74.4093 24.6028 74.4093 24.1281C74.4093 23.5951 74.3177 23.1328 74.1344 22.7414C73.9595 22.3499 73.6764 22.0501 73.2849 21.8419C72.8935 21.6253 72.3771 21.5171 71.7358 21.5171H68.1254L68.1504 18.9436H72.6478L73.5098 19.9555C74.6175 19.9388 75.5086 20.1345 76.1833 20.5426C76.8662 20.9424 77.3618 21.4629 77.6699 22.1042C77.9864 22.7455 78.1446 23.4326 78.1446 24.1656C78.1446 25.3316 77.8906 26.3143 77.3826 27.1139C76.8745 27.9051 76.1291 28.5006 75.1464 28.9003C74.1719 29.3001 72.9809 29.5 71.5734 29.5ZM88.0265 26.4517V20.4302C88.0265 19.9971 87.9557 19.6265 87.8141 19.3183C87.6725 19.0019 87.4518 18.7562 87.152 18.5813C86.8605 18.4064 86.4815 18.3189 86.0151 18.3189C85.6154 18.3189 85.2697 18.3897 84.9782 18.5313C84.6867 18.6645 84.4618 18.8603 84.3036 19.1185C84.1454 19.3683 84.0662 19.664 84.0662 20.0054H80.4683C80.4683 19.4308 80.6016 18.8853 80.8681 18.3689C81.1346 17.8525 81.5219 17.3986 82.0299 17.0072C82.538 16.6074 83.1418 16.2951 83.8414 16.0702C84.5493 15.8453 85.3405 15.7329 86.215 15.7329C87.2644 15.7329 88.1972 15.9078 89.0134 16.2576C89.8296 16.6074 90.4709 17.1321 90.9373 17.8317C91.412 18.5313 91.6494 19.4058 91.6494 20.4552V26.2394C91.6494 26.9806 91.6952 27.5886 91.7868 28.0633C91.8784 28.5297 92.0117 28.9378 92.1866 29.2876V29.5H88.5512C88.3763 29.1335 88.243 28.6755 88.1514 28.1258C88.0681 27.5678 88.0265 27.0098 88.0265 26.4517ZM88.5012 21.2672L88.5262 23.3036H86.5148C86.0401 23.3036 85.6278 23.3577 85.278 23.466C84.9282 23.5742 84.6409 23.7283 84.416 23.9282C84.1912 24.1198 84.0246 24.3446 83.9163 24.6028C83.8164 24.861 83.7664 25.1442 83.7664 25.4523C83.7664 25.7605 83.8372 26.0395 83.9788 26.2893C84.1204 26.5309 84.3244 26.7224 84.5909 26.864C84.8575 26.9973 85.1698 27.0639 85.5279 27.0639C86.0693 27.0639 86.5398 26.9556 86.9396 26.7391C87.3394 26.5225 87.6475 26.256 87.8641 25.9395C88.0889 25.6231 88.2055 25.3232 88.2139 25.0401L89.1633 26.5642C89.0301 26.9057 88.8468 27.2596 88.6136 27.6261C88.3888 27.9925 88.1014 28.3382 87.7516 28.663C87.4018 28.9795 86.9812 29.2418 86.4899 29.45C85.9985 29.6499 85.4155 29.7499 84.7409 29.7499C83.883 29.7499 83.1043 29.5791 82.4047 29.2377C81.7134 28.8879 81.1637 28.409 80.7556 27.801C80.3559 27.1847 80.156 26.4851 80.156 25.7022C80.156 24.9943 80.2892 24.3654 80.5558 23.8158C80.8223 23.2661 81.2137 22.8038 81.7301 22.4291C82.2548 22.0459 82.9086 21.7586 83.6915 21.5671C84.4743 21.3672 85.3822 21.2672 86.4149 21.2672H88.5012ZM97.9458 18.8686V29.5H94.3478V15.9828H97.7209L97.9458 18.8686ZM97.4211 22.2666H96.4466C96.4466 21.2672 96.5757 20.3677 96.8339 19.5682C97.0921 18.7603 97.4544 18.0732 97.9208 17.5069C98.3872 16.9322 98.941 16.495 99.5823 16.1951C100.232 15.887 100.957 15.7329 101.756 15.7329C102.389 15.7329 102.968 15.8245 103.493 16.0077C104.017 16.191 104.467 16.4825 104.842 16.8822C105.225 17.282 105.516 17.8109 105.716 18.4688C105.925 19.1268 106.029 19.9305 106.029 20.8799V29.5H102.406V20.8675C102.406 20.2678 102.322 19.8014 102.156 19.4683C101.989 19.1351 101.744 18.9019 101.419 18.7687C101.102 18.6271 100.711 18.5563 100.244 18.5563C99.7614 18.5563 99.3408 18.6521 98.9827 18.8436C98.6329 19.0352 98.3414 19.3017 98.1082 19.6432C97.8833 19.9763 97.7126 20.3677 97.596 20.8175C97.4794 21.2672 97.4211 21.7503 97.4211 22.2666ZM112.363 10.2985V29.5H108.765V10.2985H112.363ZM120.883 15.9828L115.011 22.6789L111.863 25.8646L110.551 23.2661L113.05 20.0929L116.56 15.9828H120.883ZM117.147 29.5L113.15 23.2536L115.636 21.0798L121.295 29.5H117.147Z" fill="#E1E1E6"/>
</svg>
